<svg xmlns="http://www.w3.org/2000/svg" width="24" height="24" viewBox="0 0 24 24">
<path d="M12.00 1.40 L14.22 5.15 L18.23 3.42 L17.82 7.77 L22.08 8.72 L19.20 12.00 L22.08 15.28 L17.82 16.23 L18.23 20.58 L14.22 18.85 L12.00 22.60 L9.78 18.85 L5.77 20.58 L6.18 16.23 L1.92 15.28 L4.80 12.00 L1.92 8.72 L6.18 7.77 L5.77 3.42 L9.78 5.15 Z M12 7.2a4.8 4.8 0 1 0 0 9.6a4.8 4.8 0 1 0 0-9.6z" fill="#FFFFFF" fill-rule="evenodd" stroke="#1B1530" stroke-width="1.6" stroke-linejoin="round"/><circle cx="12" cy="12" r="6.2" fill="none" stroke="#1B1530" stroke-opacity="0.35" stroke-width="1"/>
</svg>
