<svg xmlns="http://www.w3.org/2000/svg" width="24" height="24" viewBox="0 0 24 24">
<path d="M8 10.4V7.7a4 4 0 0 1 8 0v2.7" fill="none" stroke="#1B1530" stroke-width="5.6" stroke-linecap="round" stroke-linejoin="round"/><path d="M8 10.4V7.7a4 4 0 0 1 8 0v2.7" fill="none" stroke="#FFFFFF" stroke-width="2.4" stroke-linecap="round" stroke-linejoin="round"/><path d="M5.2 10.4h13.6a1.4 1.4 0 0 1 1.4 1.4v7.8a1.6 1.6 0 0 1-1.6 1.6H5.4a1.6 1.6 0 0 1-1.6-1.6v-7.8a1.4 1.4 0 0 1 1.4-1.4z" fill="#FFFFFF" stroke="#1B1530" stroke-width="1.6" stroke-linejoin="round" stroke-linecap="round"/><path d="M12 10.4h6.8a1.4 1.4 0 0 1 1.4 1.4v7.8a1.6 1.6 0 0 1-1.6 1.6H12z" fill="#000" fill-opacity="0.14"/><circle cx="12" cy="14.6" r="1.7" fill="#1B1530"/><path d="M11.2 15.2h1.6l.5 3h-2.6z" fill="#1B1530"/>
</svg>
