<svg xmlns="http://www.w3.org/2000/svg" width="24" height="24" viewBox="0 0 24 24">
<g transform="translate(-1.6 2.2) scale(0.86)"><path d="M20.6 3.4v3.3l-9.3 9.3-3.3-3.3 9.3-9.3z" fill="#FFFFFF" stroke="#1B1530" stroke-width="1.6" stroke-linejoin="round" stroke-linecap="round"/><path d="M20.6 3.4v3.3l-9.3 9.3-1.65-1.65z" fill="#000" fill-opacity="0.18"/><path d="M4.9 11.6l7.5 7.5-1.6 1.6-7.5-7.5z" fill="#FFFFFF" stroke="#1B1530" stroke-width="1.6" stroke-linejoin="round" stroke-linecap="round"/><path d="M8.6 17.2l-3.4 3.4-1.8-1.8 3.4-3.4z" fill="#FFFFFF" stroke="#1B1530" stroke-width="1.6" stroke-linejoin="round" stroke-linecap="round"/></g><g transform="translate(13.6 1.2) scale(0.44)"><path d="M12.00 3.40 L12.00 20.60" fill="none" stroke="#1B1530" stroke-width="5.300000000000001" stroke-linecap="round" stroke-linejoin="round"/><path d="M19.45 7.70 L4.55 16.30" fill="none" stroke="#1B1530" stroke-width="5.300000000000001" stroke-linecap="round" stroke-linejoin="round"/><path d="M19.45 16.30 L4.55 7.70" fill="none" stroke="#1B1530" stroke-width="5.300000000000001" stroke-linecap="round" stroke-linejoin="round"/><path d="M12.00 6.40 L10.26 4.33" fill="none" stroke="#1B1530" stroke-width="5.300000000000001" stroke-linecap="round" stroke-linejoin="round"/><path d="M12.00 6.40 L13.74 4.33" fill="none" stroke="#1B1530" stroke-width="5.300000000000001" stroke-linecap="round" stroke-linejoin="round"/><path d="M16.85 9.20 L17.77 6.66" fill="none" stroke="#1B1530" stroke-width="5.300000000000001" stroke-linecap="round" stroke-linejoin="round"/><path d="M16.85 9.20 L19.51 9.67" fill="none" stroke="#1B1530" stroke-width="5.300000000000001" stroke-linecap="round" stroke-linejoin="round"/><path d="M16.85 14.80 L19.51 14.33" fill="none" stroke="#1B1530" stroke-width="5.300000000000001" stroke-linecap="round" stroke-linejoin="round"/><path d="M16.85 14.80 L17.77 17.34" fill="none" stroke="#1B1530" stroke-width="5.300000000000001" stroke-linecap="round" stroke-linejoin="round"/><path d="M12.00 17.60 L13.74 19.67" fill="none" stroke="#1B1530" stroke-width="5.300000000000001" stroke-linecap="round" stroke-linejoin="round"/><path d="M12.00 17.60 L10.26 19.67" fill="none" stroke="#1B1530" stroke-width="5.300000000000001" stroke-linecap="round" stroke-linejoin="round"/><path d="M7.15 14.80 L6.23 17.34" fill="none" stroke="#1B1530" stroke-width="5.300000000000001" stroke-linecap="round" stroke-linejoin="round"/><path d="M7.15 14.80 L4.49 14.33" fill="none" stroke="#1B1530" stroke-width="5.300000000000001" stroke-linecap="round" stroke-linejoin="round"/><path d="M7.15 9.20 L4.49 9.67" fill="none" stroke="#1B1530" stroke-width="5.300000000000001" stroke-linecap="round" stroke-linejoin="round"/><path d="M7.15 9.20 L6.23 6.66" fill="none" stroke="#1B1530" stroke-width="5.300000000000001" stroke-linecap="round" stroke-linejoin="round"/><path d="M12.00 3.40 L12.00 20.60" fill="none" stroke="#FFFFFF" stroke-width="2.1" stroke-linecap="round" stroke-linejoin="round"/><path d="M19.45 7.70 L4.55 16.30" fill="none" stroke="#FFFFFF" stroke-width="2.1" stroke-linecap="round" stroke-linejoin="round"/><path d="M19.45 16.30 L4.55 7.70" fill="none" stroke="#FFFFFF" stroke-width="2.1" stroke-linecap="round" stroke-linejoin="round"/><path d="M12.00 6.40 L10.26 4.33" fill="none" stroke="#FFFFFF" stroke-width="2.1" stroke-linecap="round" stroke-linejoin="round"/><path d="M12.00 6.40 L13.74 4.33" fill="none" stroke="#FFFFFF" stroke-width="2.1" stroke-linecap="round" stroke-linejoin="round"/><path d="M16.85 9.20 L17.77 6.66" fill="none" stroke="#FFFFFF" stroke-width="2.1" stroke-linecap="round" stroke-linejoin="round"/><path d="M16.85 9.20 L19.51 9.67" fill="none" stroke="#FFFFFF" stroke-width="2.1" stroke-linecap="round" stroke-linejoin="round"/><path d="M16.85 14.80 L19.51 14.33" fill="none" stroke="#FFFFFF" stroke-width="2.1" stroke-linecap="round" stroke-linejoin="round"/><path d="M16.85 14.80 L17.77 17.34" fill="none" stroke="#FFFFFF" stroke-width="2.1" stroke-linecap="round" stroke-linejoin="round"/><path d="M12.00 17.60 L13.74 19.67" fill="none" stroke="#FFFFFF" stroke-width="2.1" stroke-linecap="round" stroke-linejoin="round"/><path d="M12.00 17.60 L10.26 19.67" fill="none" stroke="#FFFFFF" stroke-width="2.1" stroke-linecap="round" stroke-linejoin="round"/><path d="M7.15 14.80 L6.23 17.34" fill="none" stroke="#FFFFFF" stroke-width="2.1" stroke-linecap="round" stroke-linejoin="round"/><path d="M7.15 14.80 L4.49 14.33" fill="none" stroke="#FFFFFF" stroke-width="2.1" stroke-linecap="round" stroke-linejoin="round"/><path d="M7.15 9.20 L4.49 9.67" fill="none" stroke="#FFFFFF" stroke-width="2.1" stroke-linecap="round" stroke-linejoin="round"/><path d="M7.15 9.20 L6.23 6.66" fill="none" stroke="#FFFFFF" stroke-width="2.1" stroke-linecap="round" stroke-linejoin="round"/></g>
</svg>
