<svg xmlns="http://www.w3.org/2000/svg" width="24" height="24" viewBox="0 0 24 24">
<path d="M6.4 10C7.2 4.2 15.2 3.4 17.4 8.4" fill="none" stroke="#1B1530" stroke-width="5.4" stroke-linecap="round" stroke-linejoin="round"/><path d="M18.40 11.20 L15.00 8.40 L19.80 7.40 Z" fill="#1B1530" stroke="#1B1530" stroke-width="3.2" stroke-linejoin="round"/><path d="M6.4 10C7.2 4.2 15.2 3.4 17.4 8.4" fill="none" stroke="#FFFFFF" stroke-width="2.2" stroke-linecap="round" stroke-linejoin="round"/><path d="M18.40 11.20 L15.00 8.40 L19.80 7.40 Z" fill="#FFFFFF"/><rect x="2.00" y="11.80" width="9.40" height="9.40" rx="2.26" fill="#FFFFFF" stroke="#1B1530" stroke-width="1.6"/><path d="M11.40 14.62V18.94A2.26 2.26 0 0 1 9.14 21.20H4.82Q9.99 19.79 11.40 14.62z" fill="#000" fill-opacity="0.14"/><circle cx="4.73" cy="14.53" r="0.99" fill="#1B1530"/><circle cx="8.67" cy="14.53" r="0.99" fill="#1B1530"/><circle cx="4.73" cy="18.47" r="0.99" fill="#1B1530"/><circle cx="8.67" cy="18.47" r="0.99" fill="#1B1530"/><rect x="12.60" y="11.80" width="9.40" height="9.40" rx="2.26" fill="#FFFFFF" stroke="#1B1530" stroke-width="1.6"/><path d="M22.00 14.62V18.94A2.26 2.26 0 0 1 19.74 21.20H15.42Q20.59 19.79 22.00 14.62z" fill="#000" fill-opacity="0.14"/><circle cx="15.33" cy="14.53" r="0.99" fill="#1B1530"/><circle cx="19.27" cy="14.53" r="0.99" fill="#1B1530"/><circle cx="15.33" cy="18.47" r="0.99" fill="#1B1530"/><circle cx="19.27" cy="18.47" r="0.99" fill="#1B1530"/>
</svg>
