<svg xmlns="http://www.w3.org/2000/svg" width="24" height="24" viewBox="0 0 24 24">
<g transform="translate(-1.2 1.8) scale(0.9)"><rect x="6.6" y="5.4" width="2.7" height="9" rx="1.35" fill="#1B1530" stroke="#1B1530" stroke-width="3.4" stroke-linejoin="round"/><rect x="9.3" y="3.2" width="2.7" height="10" rx="1.35" fill="#1B1530" stroke="#1B1530" stroke-width="3.4" stroke-linejoin="round"/><rect x="12.0" y="3.8" width="2.7" height="10" rx="1.35" fill="#1B1530" stroke="#1B1530" stroke-width="3.4" stroke-linejoin="round"/><rect x="14.7" y="6.0" width="2.6" height="8" rx="1.3" fill="#1B1530" stroke="#1B1530" stroke-width="3.4" stroke-linejoin="round"/><path d="M6.6 11h10.7v4.6a5.4 5.4 0 0 1-5.4 5.4 5.4 5.4 0 0 1-5.3-5.4z" fill="#1B1530" stroke="#1B1530" stroke-width="3.4" stroke-linejoin="round"/><rect x="5.0" y="9.6" width="2.8" height="7.8" rx="1.4" transform="rotate(-32 7.2 16.6)" fill="#1B1530" stroke="#1B1530" stroke-width="3.4" stroke-linejoin="round"/><rect x="6.6" y="5.4" width="2.7" height="9" rx="1.35" fill="#FFFFFF"/><rect x="9.3" y="3.2" width="2.7" height="10" rx="1.35" fill="#FFFFFF"/><rect x="12.0" y="3.8" width="2.7" height="10" rx="1.35" fill="#FFFFFF"/><rect x="14.7" y="6.0" width="2.6" height="8" rx="1.3" fill="#FFFFFF"/><path d="M6.6 11h10.7v4.6a5.4 5.4 0 0 1-5.4 5.4 5.4 5.4 0 0 1-5.3-5.4z" fill="#FFFFFF"/><rect x="5.0" y="9.6" width="2.8" height="7.8" rx="1.4" transform="rotate(-32 7.2 16.6)" fill="#FFFFFF"/><path d="M17.3 11v4.6a5.4 5.4 0 0 1-5.4 5.4c2.6-1.6 3.8-4.4 3.8-7.4V11z" fill="#000" fill-opacity="0.14"/><path d="M9.3 8.4v4.4M12 7v5.6M14.7 8.6v4.2" stroke="#1B1530" stroke-opacity="0.45" stroke-width="1" stroke-linecap="round"/></g><path d="M18.8 2.6v6.8M15.4 6h6.8" fill="none" stroke="#1B1530" stroke-width="5.6" stroke-linecap="round" stroke-linejoin="round"/><path d="M18.8 2.6v6.8M15.4 6h6.8" fill="none" stroke="#FFFFFF" stroke-width="2.4" stroke-linecap="round" stroke-linejoin="round"/>
</svg>
