<svg xmlns="http://www.w3.org/2000/svg" width="24" height="24" viewBox="0 0 24 24">
<g transform="rotate(-8 14 12) translate(0.6 0)"><path d="M7.4 4.2h6.6v7l4.8 2c2 .9 3.2 2.6 3.2 4.6v.4H7.4z" fill="#FFFFFF" stroke="#1B1530" stroke-width="1.6" stroke-linejoin="round" stroke-linecap="round"/><path d="M14 11.2l4.8 2c2 .9 3.2 2.6 3.2 4.6v.4h-5.6c.4-2.8-.4-5-2.4-7z" fill="#000" fill-opacity="0.16"/><path d="M6.8 18h15.6v1.4a1.2 1.2 0 0 1-1.2 1.2h-8.8v1H6.8z" fill="#FFFFFF" stroke="#1B1530" stroke-width="1.6" stroke-linejoin="round" stroke-linecap="round"/><rect x="6.6" y="2.4" width="8.2" height="3.4" rx="1" fill="#FFFFFF" stroke="#1B1530" stroke-width="1.6"/><path d="M14 12.4l-2.2 1.4M16.2 13.4l-2 1.6" stroke="#1B1530" stroke-opacity="0.55" stroke-width="1.1" stroke-linecap="round"/></g><circle cx="3.6" cy="19.4" r="1.6" fill="#FFFFFF" stroke="#1B1530" stroke-width="1.6"/><circle cx="2.6" cy="14.6" r="1.35" fill="#FFFFFF" stroke="#1B1530" stroke-width="1.6"/><circle cx="3.8" cy="10.2" r="1.15" fill="#FFFFFF" stroke="#1B1530" stroke-width="1.6"/>
</svg>
