<svg xmlns="http://www.w3.org/2000/svg" width="24" height="24" viewBox="0 0 24 24">
<path d="M14.6 10.4l4.4-8" fill="none" stroke="#1B1530" stroke-opacity="1.0" stroke-width="2.8" stroke-linecap="round" stroke-linejoin="round"/><path d="M14.6 10.4l4.4-8" fill="none" stroke="#C88A4E" stroke-opacity="1.0" stroke-width="1.2" stroke-linecap="round" stroke-linejoin="round"/><path d="M6.6 19.2h2.4l-.4 2.6H7z" fill="#3C3548" stroke="#1B1530" stroke-width="1.1" stroke-linejoin="round" stroke-linecap="round"/><path d="M15 19.2h2.4l-.4 2.6H15.4z" fill="#3C3548" stroke="#1B1530" stroke-width="1.1" stroke-linejoin="round" stroke-linecap="round"/><path d="M3.2 11.6h17.6c0 5-3.8 8.6-8.8 8.6s-8.8-3.6-8.8-8.6z" fill="#3C3548" stroke="#1B1530" stroke-width="1.6" stroke-linejoin="round" stroke-linecap="round"/><path d="M17.8 11.6h3c0 5-3.8 8.6-8.8 8.6 3.6-1.6 5.6-4.6 5.8-8.6z" fill="#000" fill-opacity="0.22"/><path d="M2.4 10.2h19.2a1.1 1.1 0 0 1 0 2.2H2.4a1.1 1.1 0 0 1 0-2.2z" fill="#5A5268" stroke="#1B1530" stroke-width="1.3" stroke-linejoin="round" stroke-linecap="round"/><ellipse cx="12.00" cy="10.60" rx="8.40" ry="1.20" fill="#FF5CAE" fill-opacity="1.0"/><circle cx="8.80" cy="8.20" r="1.50" fill="#FFB6DA" stroke="#1B1530" stroke-width="1.0"/><circle cx="12.40" cy="6.40" r="1.10" fill="#FFB6DA" stroke="#1B1530" stroke-width="1.0"/><circle cx="15.60" cy="7.80" r="0.80" fill="#FFB6DA" stroke="#1B1530" stroke-width="0.9"/><circle cx="8.40" cy="7.80" r="0.45" fill="#FFFFFF"/><circle cx="9.40" cy="14.60" r="1.15" fill="#1B1530"/><circle cx="9.00" cy="14.14" r="0.48" fill="#FFFFFF"/><circle cx="14.60" cy="14.60" r="1.15" fill="#1B1530"/><circle cx="14.20" cy="14.14" r="0.48" fill="#FFFFFF"/><ellipse cx="7.80" cy="16.40" rx="1.10" ry="0.60" fill="#FF7A9A" fill-opacity="0.7"/><ellipse cx="16.20" cy="16.40" rx="1.10" ry="0.60" fill="#FF7A9A" fill-opacity="0.7"/><path d="M11.2 17c.5.4 1.1.4 1.6 0" fill="none" stroke="#FFFFFF" stroke-opacity="0.9" stroke-width="0.9" stroke-linecap="round" stroke-linejoin="round"/><path d="M5.4 14a6.6 6 0 0 0 1.6 3" fill="none" stroke="#fff" stroke-opacity="0.4" stroke-width="1.1" stroke-linecap="round"/>
</svg>
