<svg xmlns="http://www.w3.org/2000/svg" width="24" height="24" viewBox="0 0 24 24">
<path d="M10 4.6h4v3.6c3 2.4 5.6 5.4 5.6 8.6a7.6 7.6 0 0 1-15.2 0c0-3.2 2.6-6.2 5.6-8.6z" fill="#DDEBFF" stroke="#1B1530" stroke-width="1.6" stroke-linejoin="round" stroke-linecap="round"/><path d="M4.6 14.4h14.8c.1.8.2 1.6.2 2.4a7.6 7.6 0 0 1-15.2 0c0-.8.1-1.6.2-2.4z" fill="#5CD6FF"/><path d="M19.6 16.8a7.6 7.6 0 0 1-9.8 7.2c4.8-.6 8.2-4 8.4-9.6.9 1 1.4 1.6 1.4 2.4z" fill="#000" fill-opacity="0.22"/><path d="M10 4.6h4v3.6c3 2.4 5.6 5.4 5.6 8.6a7.6 7.6 0 0 1-15.2 0c0-3.2 2.6-6.2 5.6-8.6z" fill="none" stroke="#1B1530" stroke-width="1.6" stroke-linejoin="round"/><path d="M9.2 2.4h5.6v2.8H9.2z" fill="#B9824A" stroke="#1B1530" stroke-width="1.3" stroke-linejoin="round" stroke-linecap="round"/><path d="M7.4 13.2a6 6 0 0 1 2.4-3.2" fill="none" stroke="#fff" stroke-opacity="0.85" stroke-width="1.2" stroke-linecap="round"/><path d="M12.00 14.20 L12.78 16.42 L15.00 17.20 L12.78 17.98 L12.00 20.20 L11.22 17.98 L9.00 17.20 L11.22 16.42 Z" fill="#FFFFFF" stroke="#1B1530" stroke-width="0.9" stroke-linejoin="round"/>
</svg>
